<svg width="849" height="264" viewBox="0 0 849 264" fill="none" xmlns="http://www.w3.org/2000/svg">
<rect width="849" height="264" fill="white"/>
<path d="M244.5 200H254.65L288 118H277.729L259.966 162.292H259.725L240.633 118H230L255.013 174.023L244.5 200Z" fill="#030F4F"/>
<path d="M325.537 177C335.049 177 342.274 172.672 346.488 165.697H346.608V176.279H356V117.721H346.247V128.062L346.006 128.183C341.792 121.088 334.206 117 325.537 117C308.92 117 297 130.106 297 147.421C297 165.216 309.402 177 325.537 177ZM326.982 168.102C314.941 168.102 306.874 159.204 306.874 147.421C306.874 134.435 315.904 125.898 326.982 125.898C338.541 125.898 346.608 135.397 346.608 147.421C346.608 159.806 337.818 168.102 326.982 168.102Z" fill="#030F4F"/>
<path d="M377 176H386.798V147.039C386.798 133.994 394.056 125.856 403.734 125.856C412.566 125.856 417.403 132.678 417.403 145.124V176H427.202V147.039C427.202 133.994 434.58 125.856 443.773 125.856C452.725 125.856 457.202 132.678 457.202 145.124V176H467V142.491C467 125.856 459.742 117 446.678 117C437.485 117 429.501 121.548 425.025 129.446H424.905C421.88 121.428 415.468 117 406.639 117C398.776 117 391.395 121.189 386.919 128.249H386.798V117.718H377V176Z" fill="#030F4F"/>
<path d="M518.579 177C534.649 177 547 165.245 547 147.493C547 130.221 535.129 117.147 518.579 117.147C509.707 117.147 502.27 121.105 497.833 128.062H497.713V88H488V176.28H497.233V165.725H497.475C501.79 172.682 508.988 177 518.579 177ZM517.26 168.124C506.108 168.124 497.233 159.848 497.233 147.493C497.233 135.499 505.269 126.023 517.14 126.023C528.173 126.023 537.167 134.539 537.167 147.493C537.167 159.248 529.011 168.124 517.26 168.124Z" fill="#030F4F"/>
<path d="M589.538 177C599.049 177 606.273 172.672 610.489 165.697H610.609V176.279H620V117.721H610.247V128.062L610.007 128.183C605.794 121.088 598.207 117 589.538 117C572.92 117 561 130.106 561 147.421C561 165.216 573.402 177 589.538 177ZM590.982 168.102C578.94 168.102 570.873 159.204 570.873 147.421C570.873 134.435 579.905 125.898 590.982 125.898C602.54 125.898 610.609 135.397 610.609 147.421C610.609 159.806 601.818 168.102 590.982 168.102Z" fill="#030F4F"/>
<path d="M642 176H651.62V147.876C651.62 136.148 658.155 127.651 669.199 127.651C670.148 127.651 671.573 127.771 673 127.89V117.12C672.167 117 671.454 117 670.624 117C662.668 117 656.015 121.308 651.859 128.369H651.62V117.718H642V176Z" fill="#030F4F"/>
<path d="M688 176H697.705V146.919C697.705 133.755 704.894 125.856 715.917 125.856C724.424 125.856 730.295 130.523 730.295 144.166V176H740V141.414C740 124.779 731.613 117 719.033 117C710.046 117 702.378 121.189 697.825 128.249H697.705V117.718H688V176Z" fill="#030F4F"/>
<path d="M141 199C170.731 196.236 194 171.363 194 141.087C194 122.902 185.605 106.666 172.457 96L141 146.572V199Z" fill="#030F4F"/>
<path d="M160 88.4597L133.836 132H133.503L108 89.7908C116.15 85.4564 125.454 83 135.333 83C144.15 83 152.51 84.957 160 88.4597Z" fill="#030F4F"/>
<path d="M96.611 98C84.5716 108.674 77 124.154 77 141.378C77 170.523 98.679 194.674 127 199V146.876L96.611 98Z" fill="#030F4F"/>
<path d="M570.299 194.48C570.299 192.211 570.837 190.388 571.912 189.012C572.988 187.626 574.396 186.934 576.137 186.934C577.868 186.934 579.24 187.526 580.252 188.711V181H582.781V202H580.457L580.334 200.414C579.322 201.654 577.914 202.273 576.109 202.273C574.396 202.273 572.997 201.572 571.912 200.168C570.837 198.764 570.299 196.932 570.299 194.672V194.48ZM572.828 194.768C572.828 196.445 573.174 197.757 573.867 198.705C574.56 199.653 575.517 200.127 576.738 200.127C578.342 200.127 579.514 199.407 580.252 197.967V191.172C579.495 189.777 578.333 189.08 576.766 189.08C575.526 189.08 574.56 189.559 573.867 190.516C573.174 191.473 572.828 192.89 572.828 194.768ZM589.467 202H586.938V187.207H589.467V202ZM586.732 183.283C586.732 182.873 586.855 182.527 587.102 182.244C587.357 181.962 587.73 181.82 588.223 181.82C588.715 181.82 589.089 181.962 589.344 182.244C589.599 182.527 589.727 182.873 589.727 183.283C589.727 183.693 589.599 184.035 589.344 184.309C589.089 184.582 588.715 184.719 588.223 184.719C587.73 184.719 587.357 184.582 587.102 184.309C586.855 184.035 586.732 183.693 586.732 183.283ZM602.141 198.076C602.141 197.393 601.881 196.864 601.361 196.49C600.851 196.107 599.953 195.779 598.668 195.506C597.392 195.232 596.376 194.904 595.619 194.521C594.872 194.139 594.316 193.683 593.951 193.154C593.596 192.626 593.418 191.997 593.418 191.268C593.418 190.055 593.928 189.03 594.949 188.191C595.979 187.353 597.292 186.934 598.887 186.934C600.564 186.934 601.922 187.367 602.961 188.232C604.009 189.098 604.533 190.206 604.533 191.555H601.99C601.99 190.862 601.694 190.265 601.102 189.764C600.518 189.262 599.78 189.012 598.887 189.012C597.966 189.012 597.246 189.212 596.727 189.613C596.207 190.014 595.947 190.538 595.947 191.186C595.947 191.796 596.189 192.257 596.672 192.566C597.155 192.876 598.025 193.173 599.283 193.455C600.55 193.738 601.576 194.075 602.359 194.467C603.143 194.859 603.722 195.333 604.096 195.889C604.479 196.436 604.67 197.105 604.67 197.898C604.67 199.22 604.141 200.282 603.084 201.084C602.027 201.877 600.655 202.273 598.969 202.273C597.784 202.273 596.736 202.064 595.824 201.645C594.913 201.225 594.197 200.642 593.678 199.895C593.167 199.138 592.912 198.322 592.912 197.447H595.441C595.487 198.295 595.824 198.969 596.453 199.471C597.091 199.963 597.93 200.209 598.969 200.209C599.926 200.209 600.691 200.018 601.266 199.635C601.849 199.243 602.141 198.723 602.141 198.076ZM613.898 200.209C614.801 200.209 615.589 199.936 616.264 199.389C616.938 198.842 617.312 198.158 617.385 197.338H619.777C619.732 198.186 619.44 198.992 618.902 199.758C618.365 200.523 617.645 201.134 616.742 201.59C615.849 202.046 614.901 202.273 613.898 202.273C611.884 202.273 610.28 201.604 609.086 200.264C607.901 198.915 607.309 197.074 607.309 194.74V194.316C607.309 192.876 607.573 191.596 608.102 190.475C608.63 189.354 609.387 188.483 610.371 187.863C611.365 187.243 612.536 186.934 613.885 186.934C615.544 186.934 616.92 187.43 618.014 188.424C619.117 189.417 619.704 190.707 619.777 192.293H617.385C617.312 191.336 616.947 190.552 616.291 189.941C615.644 189.322 614.842 189.012 613.885 189.012C612.6 189.012 611.602 189.477 610.891 190.406C610.189 191.327 609.838 192.662 609.838 194.412V194.891C609.838 196.595 610.189 197.908 610.891 198.828C611.592 199.749 612.595 200.209 613.898 200.209ZM621.951 194.467C621.951 193.018 622.234 191.714 622.799 190.557C623.373 189.399 624.166 188.506 625.178 187.877C626.199 187.248 627.361 186.934 628.664 186.934C630.678 186.934 632.305 187.631 633.545 189.025C634.794 190.42 635.418 192.275 635.418 194.59V194.768C635.418 196.208 635.14 197.502 634.584 198.65C634.037 199.79 633.249 200.678 632.219 201.316C631.198 201.954 630.022 202.273 628.691 202.273C626.686 202.273 625.059 201.576 623.811 200.182C622.571 198.787 621.951 196.941 621.951 194.645V194.467ZM624.494 194.768C624.494 196.408 624.872 197.725 625.629 198.719C626.395 199.712 627.415 200.209 628.691 200.209C629.977 200.209 630.997 199.708 631.754 198.705C632.51 197.693 632.889 196.281 632.889 194.467C632.889 192.844 632.501 191.532 631.727 190.529C630.961 189.518 629.94 189.012 628.664 189.012C627.415 189.012 626.408 189.508 625.643 190.502C624.877 191.495 624.494 192.917 624.494 194.768ZM643.252 198.568L646.916 187.207H649.5L644.195 202H642.268L636.908 187.207H639.492L643.252 198.568ZM657.881 202.273C655.876 202.273 654.244 201.617 652.986 200.305C651.729 198.983 651.1 197.219 651.1 195.014V194.549C651.1 193.081 651.378 191.773 651.934 190.625C652.499 189.467 653.283 188.565 654.285 187.918C655.297 187.262 656.391 186.934 657.566 186.934C659.49 186.934 660.984 187.567 662.051 188.834C663.117 190.101 663.65 191.915 663.65 194.275V195.328H653.629C653.665 196.786 654.089 197.967 654.9 198.869C655.721 199.762 656.76 200.209 658.018 200.209C658.911 200.209 659.667 200.027 660.287 199.662C660.907 199.298 661.449 198.814 661.914 198.213L663.459 199.416C662.219 201.321 660.36 202.273 657.881 202.273ZM657.566 189.012C656.546 189.012 655.689 189.385 654.996 190.133C654.303 190.871 653.875 191.91 653.711 193.25H661.121V193.059C661.048 191.773 660.702 190.78 660.082 190.078C659.462 189.367 658.624 189.012 657.566 189.012ZM673.74 189.477C673.357 189.413 672.943 189.381 672.496 189.381C670.837 189.381 669.712 190.087 669.119 191.5V202H666.59V187.207H669.051L669.092 188.916C669.921 187.594 671.097 186.934 672.619 186.934C673.111 186.934 673.485 186.997 673.74 187.125V189.477ZM685.416 187.207L685.498 189.066C686.628 187.645 688.105 186.934 689.928 186.934C693.054 186.934 694.631 188.697 694.658 192.225V202H692.129V192.211C692.12 191.145 691.874 190.356 691.391 189.846C690.917 189.335 690.174 189.08 689.162 189.08C688.342 189.08 687.622 189.299 687.002 189.736C686.382 190.174 685.899 190.748 685.553 191.459V202H683.023V187.207H685.416ZM704.611 202.273C702.606 202.273 700.975 201.617 699.717 200.305C698.459 198.983 697.83 197.219 697.83 195.014V194.549C697.83 193.081 698.108 191.773 698.664 190.625C699.229 189.467 700.013 188.565 701.016 187.918C702.027 187.262 703.121 186.934 704.297 186.934C706.22 186.934 707.715 187.567 708.781 188.834C709.848 190.101 710.381 191.915 710.381 194.275V195.328H700.359C700.396 196.786 700.82 197.967 701.631 198.869C702.451 199.762 703.49 200.209 704.748 200.209C705.641 200.209 706.398 200.027 707.018 199.662C707.637 199.298 708.18 198.814 708.645 198.213L710.189 199.416C708.95 201.321 707.09 202.273 704.611 202.273ZM704.297 189.012C703.276 189.012 702.419 189.385 701.727 190.133C701.034 190.871 700.605 191.91 700.441 193.25H707.852V193.059C707.779 191.773 707.432 190.78 706.812 190.078C706.193 189.367 705.354 189.012 704.297 189.012ZM726.418 198.514L729.262 187.207H731.791L727.484 202H725.434L721.838 190.789L718.338 202H716.287L711.994 187.207H714.51L717.422 198.281L720.867 187.207H722.904L726.418 198.514ZM732.734 200.674C732.734 200.236 732.862 199.872 733.117 199.58C733.382 199.288 733.773 199.143 734.293 199.143C734.812 199.143 735.204 199.288 735.469 199.58C735.742 199.872 735.879 200.236 735.879 200.674C735.879 201.093 735.742 201.444 735.469 201.727C735.204 202.009 734.812 202.15 734.293 202.15C733.773 202.15 733.382 202.009 733.117 201.727C732.862 201.444 732.734 201.093 732.734 200.674ZM740.117 200.674C740.117 200.236 740.245 199.872 740.5 199.58C740.764 199.288 741.156 199.143 741.676 199.143C742.195 199.143 742.587 199.288 742.852 199.58C743.125 199.872 743.262 200.236 743.262 200.674C743.262 201.093 743.125 201.444 742.852 201.727C742.587 202.009 742.195 202.15 741.676 202.15C741.156 202.15 740.764 202.009 740.5 201.727C740.245 201.444 740.117 201.093 740.117 200.674ZM747.5 200.674C747.5 200.236 747.628 199.872 747.883 199.58C748.147 199.288 748.539 199.143 749.059 199.143C749.578 199.143 749.97 199.288 750.234 199.58C750.508 199.872 750.645 200.236 750.645 200.674C750.645 201.093 750.508 201.444 750.234 201.727C749.97 202.009 749.578 202.15 749.059 202.15C748.539 202.15 748.147 202.009 747.883 201.727C747.628 201.444 747.5 201.093 747.5 200.674Z" fill="black"/>
</svg>
